Motion_pl06
version=1
nRows=5
nColumns=43
inDegrees=yes
endheader
time	pelvis_tilt	pelvis_list	pelvis_rotation	pelvis_tx	pelvis_ty	pelvis_tz	hip_flexion_r	hip_adduction_r	hip_rotation_r	knee_angle_r	ankle_angle_r	subtalar_angle_r	mtp_angle_r	hip_flexion_l	hip_adduction_l	hip_rotation_l	knee_angle_l	ankle_angle_l	subtalar_angle_l	mtp_angle_l	lumbar_extension	lumbar_bending	lumbar_rotation	neck_flexion	neck_lateral_bending	neck_rotation	arm_flex_r	arm_add_r	arm_rot_r	elbow_flex_r	pro_sup_r	wrist_flex_r	wrist_dev_r	hand_finger_flex_r	arm_flex_l	arm_add_l	arm_rot_l	elbow_flex_l	pro_sup_l	wrist_flex_l	wrist_dev_l	hand_finger_flex_l
      1.43500000	      5.63762202	     -2.51978809	     86.05577887	     -0.06413120	      0.46074510	      0.43235864	     88.96467404	    -12.35360465	     -7.09461521	   -132.64242716	     15.45026778	     -9.08637470	     23.58767079	     88.35243858	     -0.47344979	     -0.98181963	   -133.74166674	     25.07180915	     -6.03745637	     36.05483788	    -65.23885495	     -1.87826937	     -3.50006348	     14.12367237	      3.92125607	     -0.58747284	    125.59995017	    -18.48047105	     39.39073689	     56.52955593	     99.83340144	    -35.23268875	     -6.95591543	     37.46714019	    124.11604333	    -20.78621333	     52.59307248	     62.39408021	    139.38454662	    -31.60531776	      5.41912696	     86.17588465
      1.43750000	      5.74576620	     -2.71016670	     86.04276419	     -0.06437923	      0.46274698	      0.43210361	     88.76472685	    -12.29178598	     -6.89667759	   -132.31609433	     15.77062292	     -7.56043365	     24.14338308	     88.28746697	     -0.47855560	     -0.86221696	   -133.45314450	     24.97564020	     -6.25376150	     36.04144712	    -65.16183854	     -1.81046989	     -3.47248247	     14.08324508	      3.80542778	     -0.45739222	    125.52664180	    -18.40559003	     39.30771142	     56.53583136	     99.69579050	    -35.21779742	     -7.11517628	     37.23640044	    123.89119018	    -20.89675439	     52.44721458	     62.71055390	    139.56140905	    -31.73415280	      5.75210912	     86.94025497
      1.44000000	      5.75024913	     -2.89632652	     86.06229262	     -0.06449785	      0.46489042	      0.43195798	     88.59287483	    -12.25956971	     -6.81803516	   -131.95475352	     15.78502486	     -7.42334827	     24.19740190	     88.17641388	     -0.46916559	     -0.82859356	   -133.09373265	     24.93840871	     -6.26287355	     36.03285090	    -65.09754221	     -1.81136196	     -3.51565047	     13.99000349	      3.78820787	     -0.45692791	    125.48191244	    -18.46682189	     39.32898210	     56.60824870	     99.68149719	    -35.20022908	     -7.14654522	     37.22033213	    123.78197807	    -20.91936421	     52.45916687	     62.84514627	    139.58235200	    -31.76127626	      5.76647597	     87.02922594
      1.44250000	      5.81897448	     -3.04354769	     86.01927893	     -0.06469777	      0.46700539	      0.43152797	     88.34124536	    -12.18698362	     -6.69029408	   -131.63911094	     15.99524182	     -6.42927584	     24.48939958	     88.00566497	     -0.48595241	     -0.77179980	   -132.80285111	     24.89213275	     -6.42205213	     36.00186510	    -65.04205399	     -1.79719678	     -3.47670308	     13.96209611	      3.74504758	     -0.37393052	    125.29657877	    -18.48858637	     39.22602406	     56.79543456	     99.51882884	    -35.18530077	     -7.24674934	     37.11024703	    123.44387842	    -21.01567053	     52.22207568	     63.17557792	    139.69106448	    -31.87625255	      5.89963026	     87.42168620
      1.44500000	      5.82468362	     -3.25211820	     86.04151104	     -0.06484697	      0.46914229	      0.43148653	     88.19921303	    -12.11300511	     -6.60209745	   -131.26258645	     16.02550035	     -6.29932476	     24.52143660	     87.91575088	     -0.44223356	     -0.73614567	   -132.42328555	     24.85953892	     -6.42726848	     35.99154245	    -64.95804018	     -1.79137041	     -3.49608147	     13.93211804	      3.72236210	     -0.36305288	    125.26844955	    -18.50931123	     39.22823070	     56.75502258	     99.49303284	    -35.17081041	     -7.24282141	     37.09862462	    123.33813346	    -20.97551967	     52.24259346	     63.21141763	    139.70955600	    -31.87871976	      5.91239410	     87.47409014
